TITLE ""
FILE "DISC1Track02.mp3" MP3
  TRACK 01 AUDIO
    TITLE "DISC1Track02_01"
    INDEX 01 00:00:00
  TRACK 02 AUDIO
    TITLE "DISC1Track02_02"
    INDEX 01 00:04:45
  TRACK 03 AUDIO
    TITLE "DISC1Track02_03"
    INDEX 01 00:05:00
  TRACK 04 AUDIO
    TITLE "DISC1Track02_04"
    INDEX 01 00:08:06
  TRACK 05 AUDIO
    TITLE "DISC1Track02_05"
    INDEX 01 00:10:17
  TRACK 06 AUDIO
    TITLE "DISC1Track02_06"
    INDEX 01 00:12:06
  TRACK 07 AUDIO
    TITLE "DISC1Track02_07"
    INDEX 01 00:12:39
  TRACK 08 AUDIO
    TITLE "DISC1Track02_08"
    INDEX 01 00:14:42
  TRACK 09 AUDIO
    TITLE "DISC1Track02_09"
    INDEX 01 00:16:45
  TRACK 10 AUDIO
    TITLE "DISC1Track02_10"
    INDEX 01 00:18:24
  TRACK 11 AUDIO
    TITLE "DISC1Track02_11"
    INDEX 01 00:18:57
  TRACK 12 AUDIO
    TITLE "DISC1Track02_12"
    INDEX 01 00:20:46
  TRACK 13 AUDIO
    TITLE "DISC1Track02_13"
    INDEX 01 00:22:59
  TRACK 14 AUDIO
    TITLE "DISC1Track02_14"
    INDEX 01 00:24:54
  TRACK 15 AUDIO
    TITLE "DISC1Track02_15"
    INDEX 01 00:25:04
  TRACK 16 AUDIO
    TITLE "DISC1Track02_16"
    INDEX 01 00:28:01
  TRACK 17 AUDIO
    TITLE "DISC1Track02_17"
    INDEX 01 00:30:39
  TRACK 18 AUDIO
    TITLE "DISC1Track02_18"
    INDEX 01 00:32:55
  TRACK 19 AUDIO
    TITLE "DISC1Track02_19"
    INDEX 01 00:33:12
  TRACK 20 AUDIO
    TITLE "DISC1Track02_20"
    INDEX 01 00:35:64
  TRACK 21 AUDIO
    TITLE "DISC1Track02_21"
    INDEX 01 00:38:32
  TRACK 22 AUDIO
    TITLE "DISC1Track02_22"
    INDEX 01 00:40:53
  TRACK 23 AUDIO
    TITLE "DISC1Track02_23"
    INDEX 01 00:41:09
  TRACK 24 AUDIO
    TITLE "DISC1Track02_24"
    INDEX 01 00:44:45
  TRACK 25 AUDIO
    TITLE "DISC1Track02_25"
    INDEX 01 00:46:73
  TRACK 26 AUDIO
    TITLE "DISC1Track02_26"
    INDEX 01 00:49:13
  TRACK 27 AUDIO
    TITLE "DISC1Track02_27"
    INDEX 01 00:49:42
  TRACK 28 AUDIO
    TITLE "DISC1Track02_28"
    INDEX 01 00:52:48
  TRACK 29 AUDIO
    TITLE "DISC1Track02_29"
    INDEX 01 00:54:53
  TRACK 30 AUDIO
    TITLE "DISC1Track02_30"
    INDEX 01 00:56:38
  TRACK 31 AUDIO
    TITLE "DISC1Track02_31"
    INDEX 01 00:56:70
  TRACK 32 AUDIO
    TITLE "DISC1Track02_32"
    INDEX 01 00:58:31
  TRACK 33 AUDIO
    TITLE "DISC1Track02_33"
    INDEX 01 01:00:36
  TRACK 34 AUDIO
    TITLE "DISC1Track02_34"
    INDEX 01 01:02:29
  TRACK 35 AUDIO
    TITLE "DISC1Track02_35"
    INDEX 01 01:02:60
  TRACK 36 AUDIO
    TITLE "DISC1Track02_36"
    INDEX 01 01:05:25
  TRACK 37 AUDIO
    TITLE "DISC1Track02_37"
    INDEX 01 01:07:64
  TRACK 38 AUDIO
    TITLE "DISC1Track02_38"
    INDEX 01 01:10:05
  TRACK 39 AUDIO
    TITLE "DISC1Track02_39"
    INDEX 01 01:10:36
  TRACK 40 AUDIO
    TITLE "DISC1Track02_40"
    INDEX 01 01:13:41
  TRACK 41 AUDIO
    TITLE "DISC1Track02_41"
    INDEX 01 01:15:67
  TRACK 42 AUDIO
    TITLE "DISC1Track02_42"
    INDEX 01 01:17:70
  TRACK 43 AUDIO
    TITLE "DISC1Track02_43"
    INDEX 01 01:18:28
  TRACK 44 AUDIO
    TITLE "DISC1Track02_44"
    INDEX 01 01:20:15
  TRACK 45 AUDIO
    TITLE "DISC1Track02_45"
    INDEX 01 01:22:30
  TRACK 46 AUDIO
    TITLE "DISC1Track02_46"
    INDEX 01 01:24:31
  TRACK 47 AUDIO
    TITLE "DISC1Track02_47"
    INDEX 01 01:24:64
  TRACK 48 AUDIO
    TITLE "DISC1Track02_48"
    INDEX 01 01:27:04
  TRACK 49 AUDIO
    TITLE "DISC1Track02_49"
    INDEX 01 01:29:14
  TRACK 50 AUDIO
    TITLE "DISC1Track02_50"
    INDEX 01 01:31:19
  TRACK 51 AUDIO
    TITLE "DISC1Track02_51"
    INDEX 01 01:31:48
  TRACK 52 AUDIO
    TITLE "DISC1Track02_52"
    INDEX 01 01:34:33
  TRACK 53 AUDIO
    TITLE "DISC1Track02_53"
    INDEX 01 01:36:65
  TRACK 54 AUDIO
    TITLE "DISC1Track02_54"
    INDEX 01 01:38:74
